HIERARCHY
ROOT hip
{
	OFFSET 0.000000 0.000000 0.000000 
	CHANNELS 6 Xposition Yposition Zposition Xrotation Zrotation Yrotation
	JOINT abdomen
	{
		OFFSET 0.000000 3.402643 0.000000 
		CHANNELS 3 Xrotation Zrotation Yrotation
		JOINT chest
		{
			OFFSET 0.000000 8.438565 -0.680529 
			CHANNELS 3 Xrotation Zrotation Yrotation
			JOINT neck
			{
				OFFSET 0.000000 10.207942 -0.272212 
				CHANNELS 3 Xrotation Zrotation Yrotation
				JOINT head
				{
					OFFSET 0.000000 3.130431 0.000000 
					CHANNELS 3 Xrotation Zrotation Yrotation
					End Site
					{
						OFFSET 0.000000 3.130435 0.000000 
					}
				}
			}
			JOINT lCollar
			{
				OFFSET 3.470700 6.669187 -0.816635 
				CHANNELS 3 Yrotation Zrotation Xrotation
				JOINT lShldr
				{
					OFFSET 3.198488 0.000000 0.000000 
					CHANNELS 3 Zrotation Yrotation Xrotation
					JOINT lForeArm
					{
						OFFSET 10.139888 0.000000 0.000000 
						CHANNELS 3 Yrotation Zrotation Xrotation
						JOINT lHand
						{
							OFFSET 8.370511 0.000000 0.000000 
							CHANNELS 3 Zrotation Yrotation Xrotation
							End Site
							{
								OFFSET 4.083176 0.000000 0.000000 
							}
						}
					}
				}
			}
			JOINT rCollar
			{
				OFFSET -3.470700 6.669187 -0.816635 
				CHANNELS 3 Yrotation Zrotation Xrotation
				JOINT rShldr
				{
					OFFSET -3.198488 0.000000 0.000000 
					CHANNELS 3 Zrotation Yrotation Xrotation
					JOINT rForeArm
					{
						OFFSET -10.139888 0.000000 0.000000 
						CHANNELS 3 Yrotation Zrotation Xrotation
						JOINT rHand
						{
							OFFSET -8.370511 0.000000 0.000000 
							CHANNELS 3 Zrotation Yrotation Xrotation
							End Site
							{
								OFFSET -4.083176 0.000000 0.000000 
							}
						}
					}
				}
			}
		}
	}
	JOINT lThigh
	{
		OFFSET 5.308129 -1.633274 1.361059 
		CHANNELS 3 Xrotation Zrotation Yrotation
		JOINT lShin
		{
			OFFSET -2.041588 -20.007561 0.000000 
			CHANNELS 3 Xrotation Zrotation Yrotation
			JOINT lFoot
			{
				OFFSET 0.000000 -19.190928 -1.224953 
				CHANNELS 3 Xrotation Yrotation Zrotation
				End Site
				{
					OFFSET 0.000000 -2.449906 4.627600 
				}
			}
		}
	}
	JOINT rThigh
	{
		OFFSET -5.308129 -1.633274 1.361059 
		CHANNELS 3 Xrotation Zrotation Yrotation
		JOINT rShin
		{
			OFFSET 2.041588 -20.007561 0.000000 
			CHANNELS 3 Xrotation Zrotation Yrotation
			JOINT rFoot
			{
				OFFSET 0.000000 -19.190928 -1.224953 
				CHANNELS 3 Xrotation Yrotation Zrotation
				End Site
				{
					OFFSET 0.000000 -2.449906 4.627600 
				}
			}
		}
	}
}
MOTION
Frames: 11
Frame Time: 0.033333
0.110986 45.656025 0.362713 -2.749767 10.339902 88.354752 0.000000 0.000000 0.000000 11.377951 4.777726 7.191440 35.713459 -2.421947 -0.354808 -21.624374 2.118213 2.076930 -5.460398 10.579344 25.000000 -91.109116 10.070527 -0.718287 -52.017353 5.499552 77.929031 -18.189800 -8.906607 -55.406864 -8.369106 -11.778513 22.740097 71.850189 6.459564 72.424911 34.436031 -41.653603 43.326588 37.565601 -0.920139 -80.772629 11.299769 9.673815 20.423819 36.403561 30.586546 5.888123 10.233415 -47.083824 -1.332640 28.846567 8.661577 3.443814 5.694393 -1.803565 -0.797939 8.950589 4.638865 7.274211 
0.113391 45.665245 0.394941 -3.056822 10.268883 88.009285 0.000000 0.000000 0.000000 11.343548 5.056052 7.253470 35.707569 -2.537465 -0.368230 -21.801905 2.190222 2.270134 -5.374562 10.306622 25.000000 -91.087708 10.218317 -0.720262 -52.242699 5.479923 77.755630 -18.268208 -8.919275 -55.410686 -8.176826 -11.748877 22.781017 71.813316 6.613185 72.363060 34.387520 -41.748318 43.620518 37.808151 -0.878717 -80.791092 11.860731 10.037175 20.543478 35.238075 31.030628 6.105591 10.595366 -48.831074 0.398075 28.976862 9.011395 3.529421 5.441061 -2.008435 -0.858600 8.524019 5.529322 8.172438 
0.107089 45.657200 0.451347 -3.609705 10.009803 87.322060 0.000000 0.000000 0.000000 11.176435 5.566906 7.387602 35.728634 -2.844438 -0.392013 -21.724121 2.208830 2.644128 -4.981679 10.513336 25.000000 -91.508965 10.138296 -0.464172 -51.836544 5.251600 76.796402 -17.554319 -9.019651 -55.602242 -7.806332 -11.878098 22.848063 71.993729 6.887170 72.422791 34.079910 -41.861435 43.634808 38.422813 -1.156344 -80.895432 11.867783 10.739398 20.830095 35.808376 30.313883 5.850145 9.856900 -47.347401 -1.303005 29.090588 9.706572 3.742944 5.000803 -2.456393 -1.006485 8.116550 6.663969 8.094813 
0.090615 45.634487 0.456376 -3.754670 9.676845 86.966438 0.000000 0.000000 0.000000 10.904672 5.725512 7.429551 35.678410 -2.811069 -0.389871 -21.524031 1.993618 2.320032 -4.871552 10.948057 25.000000 -92.115913 9.911918 -0.098344 -51.429214 5.100698 75.946953 -16.956705 -8.918629 -55.774086 -7.721328 -12.082090 22.834213 72.228073 7.056942 72.522621 33.574787 -41.788536 42.825703 38.621574 -1.691785 -80.986397 11.140819 10.956761 20.950167 37.703312 28.839657 5.314497 8.785867 -43.479706 -4.723769 28.812344 9.919803 3.814426 4.903580 -2.690541 -1.062887 8.078304 6.795754 7.112969 
0.070670 45.614780 0.407524 -3.542807 9.308661 86.927467 0.000000 0.000000 0.000000 10.558910 5.607175 7.421095 35.627922 -2.769712 -0.382110 -21.509619 1.748840 2.081838 -5.047326 11.197961 25.000000 -92.571236 9.742096 0.168033 -51.437557 4.974630 75.767418 -16.875446 -8.729797 -55.798714 -7.836950 -12.281023 22.778984 72.410065 7.106996 72.635086 33.024731 -41.671928 41.606373 38.432270 -2.250053 -81.042305 9.988139 10.732123 20.879189 40.322014 26.526140 4.508484 7.574619 -37.131321 -7.610466 28.347565 9.667267 3.732584 4.977998 -2.654680 -1.050808 8.001394 6.561588 6.480496 
0.060082 45.625214 0.294207 -3.144988 9.088083 87.071182 0.000000 0.000000 0.000000 10.290147 5.390921 7.373950 35.750690 -2.649763 -0.374424 -21.710581 1.492293 1.764408 -5.510387 10.849615 25.000000 -92.691818 9.833782 0.256034 -52.012001 5.215943 76.607224 -17.630802 -8.827086 -55.517414 -8.153028 -12.434305 22.678646 72.091568 6.873585 72.489944 33.581985 -41.543827 41.382004 38.129059 -3.034023 -81.088692 8.563044 10.145881 20.679714 44.157986 22.316065 3.197143 5.776680 -24.876846 -6.497862 27.936153 9.041955 3.546137 5.080339 -2.330323 -0.962618 7.749707 6.151142 6.456831 
0.094402 45.647530 0.245439 -3.186656 9.321754 86.925217 0.000000 0.000000 0.000000 10.558209 5.568774 7.413966 35.681744 -2.896034 -0.390552 -21.579222 1.815163 1.786595 -5.342687 10.547299 25.000000 -92.278297 9.874335 -0.000372 -51.813416 4.868120 76.861580 -17.866840 -9.099816 -55.344223 -7.820106 -12.606992 22.728148 72.296021 6.866245 72.614029 33.159252 -41.832458 41.241798 38.282219 -2.827560 -81.085274 8.785221 10.339610 20.756105 45.405331 17.725779 2.016027 5.273520 -15.535074 -7.987935 28.131655 8.915034 3.498481 5.269702 -2.312527 -0.948793 7.951632 6.694361 6.635948 
0.117812 45.666004 0.214149 -3.347360 9.564035 86.856575 0.000000 0.000000 0.000000 10.847653 5.822547 7.461525 35.645531 -2.969645 -0.397444 -21.532959 1.951194 1.709760 -5.422254 10.460308 25.000000 -92.034279 10.013851 -0.149135 -51.858433 4.719982 77.395889 -18.195066 -9.287928 -55.172569 -7.786453 -12.698326 22.720406 72.388466 6.959450 72.648949 32.812332 -41.793987 41.098080 38.203213 -2.662243 -81.062531 8.968155 10.718786 20.900362 46.175915 13.634330 1.049631 4.796747 -8.027975 -10.902969 28.238344 8.973527 3.524560 5.652656 -2.304752 -0.902445 8.071754 6.921435 6.837147 
0.134394 45.691078 0.180636 -3.449300 9.845763 87.280930 0.000000 0.000000 0.000000 11.105736 5.961296 7.487051 35.668991 -2.553234 -0.368055 -21.608219 1.797745 1.404864 -6.172860 10.610320 25.000000 -91.876930 10.148974 -0.239160 -52.127857 4.688784 78.267853 -18.751896 -9.171494 -55.031712 -8.317238 -12.423328 22.643913 72.097366 6.951753 72.467781 32.700397 -41.558830 41.058292 38.114109 -2.457963 -81.040184 8.826871 10.985439 21.024744 46.694439 10.178003 0.253874 4.381359 -1.655764 -14.561863 28.260267 9.003412 3.537210 6.134310 -2.096483 -0.837618 8.063714 6.554060 7.021910 
0.156108 45.729145 0.169652 -3.492727 10.196269 88.024681 0.000000 0.000000 0.000000 11.390821 5.974597 7.471458 35.822208 -1.783179 -0.314903 -21.766991 1.339743 0.894927 -7.194173 10.725391 25.000000 -91.719925 10.108053 -0.327182 -52.154308 4.832573 78.373413 -18.893064 -9.088644 -54.991974 -8.971972 -11.778316 22.603327 71.505623 6.741101 72.150635 32.909264 -41.530827 41.285309 38.112148 -2.243128 -81.020645 8.675031 10.962724 21.016195 46.869976 9.914248 0.174063 4.490474 -0.523689 -15.312246 28.505024 9.052196 3.563008 6.312009 -1.814223 -0.764813 7.968709 5.785941 6.930273 
0.187395 45.779480 0.183109 -3.617925 10.721276 88.799614 0.000000 0.000000 0.000000 11.862648 5.993240 7.457841 35.856495 -1.018426 -0.254401 -22.193220 1.048612 0.517725 -8.167130 10.674380 25.000000 -91.436897 10.053929 -0.512934 -52.030708 5.029409 78.007568 -18.727062 -9.043554 -55.043713 -9.463427 -10.927446 22.644199 70.811287 6.446359 71.778183 33.181419 -41.672615 41.598553 38.061504 -2.009207 -80.975914 8.767524 10.975526 21.021057 46.989498 11.438034 0.496748 4.882388 -2.700317 -14.348834 29.048071 9.256218 3.629919 6.228615 -1.590801 -0.709521 8.094759 4.758200 6.653598 
